<svg width="128" height="128" viewBox="0 0 128 128" fill="none" xmlns="http://www.w3.org/2000/svg">
<path d="M82.7951 127.5C94.6681 127.5 103.727 123.027 109.825 115.929C115.932 108.821 119.1 99.0414 119.1 88.3916C119.1 71.1314 108.571 55.584 92.0002 50.3623C88.1376 49.1452 83.9193 49.3918 80.6935 50.9326C77.4855 52.4649 75.2761 55.2604 75.3 59.1973V59.2002L75.3009 119.224C75.301 123.455 78.6829 127.5 82.7951 127.5Z" fill="black" stroke="black"/>
<path d="M58.6904 0.5C74.2266 0.5 87.8894 8.51789 95.7686 20.6436C97.3985 23.152 97.149 25.8417 95.7461 27.9229C94.3345 30.0165 91.7462 31.5 88.7012 31.5H87.3809C71.1992 31.5002 58.0812 44.6181 58.0811 60.7998V79.7549C58.0811 84.8273 53.9388 88.9003 49.1387 87.8428C29.3251 83.4773 14.5001 65.8152 14.5 44.6904L14.5146 43.5498C15.1102 20.051 34.0511 1.11057 57.5498 0.514648L58.6904 0.5Z" fill="black" stroke="black"/>
</svg>
